HIERARCHY
ROOT hip
{
	OFFSET 0.000000 0.000000 0.000000
	CHANNELS 6 Xposition Yposition Zposition Zrotation Yrotation Xrotation 
	JOINT lhipjoint
	{
		OFFSET 0.000000 0.000000 0.000000
		CHANNELS 3 Zrotation Yrotation Xrotation
		JOINT lfemur
		{
			OFFSET 1.363060 -1.794630 0.839290
			CHANNELS 3 Zrotation Yrotation Xrotation
			JOINT ltibia
			{
				OFFSET 2.448110 -6.726130 0.000000
				CHANNELS 3 Zrotation Yrotation Xrotation
				JOINT lfoot
				{
					OFFSET 2.562200 -7.039590 0.000000
					CHANNELS 3 Zrotation Yrotation Xrotation
					JOINT ltoes
					{
						OFFSET 0.157640 -0.433110 2.322550
						CHANNELS 3 Zrotation Yrotation Xrotation
						End Site
						{
							OFFSET 0.000000 0.000000 0.000000
						}
					}
				}
			}
		}
	}
	JOINT rhipjoint
	{
		OFFSET 0.000000 0.000000 0.000000
		CHANNELS 3 Zrotation Yrotation Xrotation
		JOINT rfemur
		{
			OFFSET -1.305520 -1.794630 0.839290
			CHANNELS 3 Zrotation Yrotation Xrotation
			JOINT rtibia
			{
				OFFSET -2.542530 -6.985550 0.000000
				CHANNELS 3 Zrotation Yrotation Xrotation
				JOINT rfoot
				{
					OFFSET -2.568260 -7.056230 0.000000
					CHANNELS 3 Zrotation Yrotation Xrotation
					JOINT rtoes
					{
						OFFSET -0.164730 -0.452590 2.363150
						CHANNELS 3 Zrotation Yrotation Xrotation
						End Site
						{
							OFFSET 0.000000 0.000000 0.000000
						}
					}
				}
			}
		}
	}
	JOINT lowerback
	{
		OFFSET 0.000000 0.000000 0.000000
		CHANNELS 3 Zrotation Yrotation Xrotation
		JOINT upperback
		{
			OFFSET 0.028270 2.035590 -0.193380
			CHANNELS 3 Zrotation Yrotation Xrotation
			JOINT thorax
			{
				OFFSET 0.056720 2.048850 -0.042750
				CHANNELS 3 Zrotation Yrotation Xrotation
				JOINT lowerneck
				{
					OFFSET 0.000000 0.000000 0.000000
					CHANNELS 3 Zrotation Yrotation Xrotation
					JOINT upperneck
					{
						OFFSET -0.054170 1.746240 0.172020
						CHANNELS 3 Zrotation Yrotation Xrotation
						JOINT head
						{
							OFFSET 0.104070 1.761360 -0.123970
							CHANNELS 3 Zrotation Yrotation Xrotation
							End Site
							{
								OFFSET 0.000000 0.000000 0.000000
							}
						}
					}
				}
				JOINT lclavicle
				{
					OFFSET 0.000000 0.000000 0.000000
					CHANNELS 3 Zrotation Yrotation Xrotation
					JOINT lhumerus
					{
						OFFSET 3.362410 1.200890 -0.311210
						CHANNELS 3 Zrotation Yrotation Xrotation
						JOINT lradius
						{
							OFFSET 4.983000 -0.000000 -0.000000
							CHANNELS 3 Zrotation Yrotation Xrotation
							JOINT lwrist
							{
								OFFSET 3.483560 -0.000000 -0.000000
								CHANNELS 3 Zrotation Yrotation Xrotation
								JOINT lhand
								{
									OFFSET 0.000000 0.000000 0.000000
									CHANNELS 3 Zrotation Yrotation Xrotation
									JOINT lfingers
									{
										OFFSET 0.715260 -0.000000 -0.000000
										CHANNELS 3 Zrotation Yrotation Xrotation
										End Site
										{
											OFFSET 0.000000 0.000000 0.000000
										}
									}
								}
								JOINT lthumb
								{
									OFFSET 0.000000 0.000000 0.000000
									CHANNELS 3 Zrotation Yrotation Xrotation
									End Site
									{
										OFFSET 0.000000 0.000000 0.000000
									}
								}
							}
						}
					}
				}
				JOINT rclavicle
				{
					OFFSET 0.000000 0.000000 0.000000
					CHANNELS 3 Zrotation Yrotation Xrotation
					JOINT rhumerus
					{
						OFFSET -3.136600 1.374050 -0.404650
						CHANNELS 3 Zrotation Yrotation Xrotation
						JOINT rradius
						{
							OFFSET -5.241900 -0.000000 -0.000000
							CHANNELS 3 Zrotation Yrotation Xrotation
							JOINT rwrist
							{
								OFFSET -3.444170 -0.000000 -0.000000
								CHANNELS 3 Zrotation Yrotation Xrotation
								JOINT rhand
								{
									OFFSET 0.000000 0.000000 0.000000
									CHANNELS 3 Zrotation Yrotation Xrotation
									JOINT rfingers
									{
										OFFSET -0.622530 -0.000000 -0.000000
										CHANNELS 3 Zrotation Yrotation Xrotation
										End Site
										{
											OFFSET 0.000000 0.000000 0.000000
										}
									}
								}
								JOINT rthumb
								{
									OFFSET 0.000000 0.000000 0.000000
									CHANNELS 3 Zrotation Yrotation Xrotation
									End Site
									{
										OFFSET 0.000000 0.000000 0.000000
									}
								}
							}
						}
					}
				}
			}
		}
	}
}
MOTION
Frames: 10
Frame Time: 0.008333
32.736303 8.247513 0.994295 145.431996 74.413985 142.274623 -3.831098 -2.171424 -1.617983 2.578000 51.374769 -87.364512 39.182831 9.114433 154.184138 4.985561 -47.504994 4.521883 1.184700 -6.907500 -19.441600 5.194745 2.182712 -2.797593 -50.605570 -76.865847 -74.242455 -38.744550 -6.798302 152.157859 -0.214379 65.655005 -17.011567 -3.523000 11.497000 -33.975000 11.630479 -8.263002 59.404493 1.019495 3.739734 1.823220 -1.614001 4.968599 7.763029 7.178528 -8.219679 -4.029053 1.245186 -10.390932 11.395644 -2.923200 -4.794300 -0.921200 -2.743158 0.660368 5.038530 -64.621317 -22.312167 55.036618 36.905800 -55.316315 -13.580876 0.325356 3.226514 2.555446 28.836993 -8.274215 -6.517700 -7.125000 0.000000 0.000000 1.066200 16.331200 -0.723500 7.787582 1.604019 3.632555 35.803842 28.807797 31.620561 -44.697542 55.102312 -18.496846 0.169479 -2.684847 -2.243420 -46.956506 22.641661 -25.744000 7.125000 0.000000 0.000000 -9.820200 5.891800 -10.930900 
32.754414 8.191091 0.990713 145.939152 74.461301 142.334332 -3.897987 -2.350646 -1.842901 3.705282 53.974425 -86.848425 39.181892 8.774731 154.488114 4.492674 -48.432979 4.353032 1.126200 -6.740700 -18.949400 5.370215 2.171509 -2.835510 -54.359842 -77.395794 -71.269767 -38.801497 -6.595206 152.412434 -0.363337 66.165682 -18.293529 -3.582000 11.582300 -34.269900 11.630842 -8.307281 59.515765 1.026131 3.694946 1.824599 -1.562481 4.946282 7.813387 7.149732 -8.203573 -4.152760 1.217443 -10.380197 11.452046 -2.954800 -4.784100 -0.847100 -2.737946 0.654404 5.033643 -64.691384 -22.322969 54.856110 36.953722 -55.356661 -13.626791 0.337721 3.234361 2.744498 28.881702 -8.351371 -6.576900 -7.125000 0.000000 0.000000 1.088800 16.225100 -0.741300 7.793233 1.612034 3.631711 36.025768 28.483138 31.588263 -45.884061 55.621200 -19.223570 0.192568 -2.754893 -3.595811 -45.952609 22.320530 -24.729100 7.125000 0.000000 0.000000 -9.314100 5.103700 -10.236800 
32.771529 8.137854 0.988424 146.366310 74.487421 142.344521 -3.949983 -2.509923 -2.051875 4.912918 56.390969 -86.251121 39.184782 8.470149 154.765973 3.882378 -49.376436 4.499641 1.035200 -6.471500 -18.158700 5.541911 2.142787 -2.880797 -58.209846 -77.803751 -68.195457 -38.865482 -6.417372 152.661882 -0.557580 66.626509 -19.517397 -3.638500 11.663200 -34.550500 11.593860 -8.342453 59.599287 1.032738 3.643127 1.836345 -1.493332 4.924349 7.921160 7.109575 -8.177135 -4.344281 1.192184 -10.363709 11.515049 -2.985300 -4.771600 -0.747600 -2.742747 0.659084 5.031495 -64.755896 -22.421517 54.649836 36.978462 -55.379190 -13.660089 0.347637 3.242430 2.860825 28.894095 -8.423269 -6.623600 -7.125000 0.000000 0.000000 1.088300 16.130400 -0.743200 7.811993 1.609240 3.613695 36.184541 28.181568 31.532733 -47.231247 56.199504 -20.057620 0.221100 -2.827667 -5.099614 -44.834060 21.976618 -23.633900 7.125000 0.000000 0.000000 -8.741000 4.254200 -9.472800 
32.788744 8.086706 0.984842 146.787292 74.514363 142.350734 -3.981797 -2.656675 -2.253509 6.240334 58.731126 -85.508256 39.190488 8.179621 155.020104 3.215027 -50.304736 4.724895 0.937500 -6.167300 -17.270500 5.715566 2.098748 -2.925896 -62.234105 -78.080658 -64.936735 -38.928941 -6.283247 152.905330 -0.529092 67.153599 -20.410149 -3.674600 11.714400 -34.728900 11.531037 -8.383877 59.689969 1.044019 3.592313 1.848163 -1.366335 4.886911 8.009194 7.012215 -8.161159 -4.472536 1.150443 -10.349567 11.561288 -3.006300 -4.761300 -0.679000 -2.743145 0.658837 5.036187 -64.845903 -22.499006 54.417302 37.030366 -55.418830 -13.699569 0.362762 3.252634 2.991355 28.796951 -8.545644 -6.665400 -7.125000 0.000000 0.000000 1.004900 15.994300 -0.689200 7.828897 1.605914 3.597378 36.327742 27.864621 31.476461 -48.682675 56.786283 -20.963987 0.255901 -2.901380 -6.664410 -43.667636 21.554660 -22.478500 7.125000 0.000000 0.000000 -8.152400 3.313100 -8.696400 
32.805362 8.039041 0.981856 147.172670 74.516047 142.354966 -4.000582 -2.788986 -2.431640 7.623770 60.896728 -84.703414 39.202498 7.903386 155.261678 2.583291 -51.131510 4.883522 0.854600 -5.895700 -16.482100 5.878401 2.046099 -2.969438 -66.289390 -78.273642 -61.615234 -38.983560 -6.205306 153.142600 -0.092554 67.753564 -20.694787 -3.650800 11.680700 -34.611600 11.508520 -8.426592 59.765091 1.050878 3.537016 1.853903 -1.316911 4.861081 8.076247 6.998985 -8.149621 -4.606911 1.127424 -10.345744 11.612398 -3.038800 -4.755400 -0.608600 -2.745141 0.655521 5.031602 -64.880232 -22.568526 54.256837 37.126093 -55.476198 -13.762289 0.371171 3.260738 2.915837 28.768736 -8.682957 -6.731900 -7.125000 0.000000 0.000000 0.964400 15.833800 -0.664800 7.843105 1.611476 3.590546 36.512396 27.497712 31.355656 -50.270480 57.377318 -21.974243 0.294376 -2.979187 -8.352219 -42.531238 21.132533 -21.383500 7.125000 0.000000 0.000000 -7.564900 2.417600 -7.945800 
32.821682 7.994760 0.978970 147.487094 74.524821 142.323835 -4.006643 -2.903361 -2.587122 9.030729 62.840872 -83.845863 39.219175 7.649622 155.478384 1.991386 -51.882288 4.954285 0.785600 -5.658400 -15.796500 6.030551 1.993192 -3.021145 -70.369683 -78.406017 -58.240182 -39.033832 -6.164674 153.372394 0.593394 68.432924 -20.701262 -3.607400 11.618800 -34.396500 11.437646 -8.458555 59.835395 1.059058 3.480353 1.863652 -1.233821 4.826223 8.168843 6.954908 -8.125034 -4.780493 1.094433 -10.327136 11.659027 -3.075100 -4.742800 -0.526300 -2.748690 0.655770 5.027449 -64.918978 -22.661886 54.031693 37.208738 -55.523287 -13.819957 0.380570 3.269753 2.856949 28.684779 -8.816172 -6.779900 -7.125000 0.000000 0.000000 0.885800 15.686500 -0.613400 7.860116 1.608488 3.577670 36.701100 27.173447 31.193340 -51.978570 57.964885 -23.066319 0.334473 -3.061188 -10.025866 -41.294314 20.671914 -20.227700 7.125000 0.000000 0.000000 -6.917300 1.461500 -7.143300 
32.836807 7.954658 0.975985 147.814504 74.520814 142.348364 -3.995920 -3.008157 -2.735448 10.504328 64.673560 -82.871427 39.237025 7.400936 155.674283 1.505969 -52.538654 4.755202 0.736100 -5.481100 -15.285900 6.170876 1.939911 -3.059014 -74.173505 -78.429245 -55.085548 -39.088326 -6.146034 153.588065 1.235823 69.040743 -20.670338 -3.573100 11.569600 -34.225800 11.375931 -8.491338 59.886635 1.069661 3.436089 1.871947 -1.130373 4.790224 8.259487 6.900185 -8.108506 -4.961894 1.069095 -10.321907 11.713356 -3.105300 -4.736400 -0.434100 -2.747952 0.652378 5.021633 -64.970760 -22.736862 53.823869 37.364399 -55.611499 -13.909435 0.383916 3.284119 2.773569 28.577611 -8.873855 -6.784900 -7.125000 0.000000 0.000000 0.801200 15.621800 -0.555900 7.877875 1.603988 3.564701 36.876421 26.849450 30.947619 -53.781275 58.522615 -24.231056 0.378874 -3.144195 -11.719922 -39.983208 20.161849 -19.028700 7.125000 0.000000 0.000000 -6.225300 0.444400 -6.310700 
32.851933 7.919431 0.972900 148.122718 74.514201 142.424601 -3.985619 -3.088915 -2.847601 11.826987 66.148671 -82.037983 39.260426 7.190640 155.859055 1.096464 -53.077752 4.569808 0.706000 -5.370500 -14.968400 6.292083 1.898245 -3.109449 -77.738731 -78.455509 -52.093951 -39.135618 -6.148502 153.787071 2.014001 69.617080 -20.397960 -3.522600 11.496400 -33.973000 11.304146 -8.530143 59.877621 1.080858 3.371367 1.885704 -1.018622 4.743295 8.375000 6.821893 -8.070186 -5.147691 1.042653 -10.285607 11.751807 -3.128600 -4.716500 -0.349600 -2.757700 0.658315 5.016688 -64.996396 -22.816777 53.567719 37.565231 -55.725501 -14.032208 0.387214 3.298906 2.686582 28.508737 -8.935937 -6.803700 -7.125000 0.000000 0.000000 0.742400 15.545200 -0.516300 7.895703 1.588024 3.552783 37.076482 26.636765 30.682521 -55.591102 59.014611 -25.395176 0.429444 -3.229817 -13.426341 -38.502654 19.529472 -17.688700 7.125000 0.000000 0.000000 -5.446100 -0.746700 -5.399200 
32.866560 7.888783 0.969119 148.456205 74.531948 142.562148 -3.970227 -3.162628 -2.956161 13.201838 67.534195 -81.130372 39.280506 6.996718 156.014584 0.721588 -53.557268 4.369252 0.672400 -5.243700 -14.605000 6.393242 1.867563 -3.134722 -80.775431 -78.421667 -49.539892 -39.165827 -6.187018 153.970879 3.244914 70.241314 -19.552454 -3.449200 11.388900 -33.603100 11.266767 -8.564676 59.871689 1.091117 3.328736 1.893312 -0.923662 4.707176 8.470085 6.751731 -8.047384 -5.332449 1.023856 -10.271809 11.792645 -3.146700 -4.707500 -0.260400 -2.759997 0.662510 5.008095 -65.037506 -22.934555 53.355856 37.714217 -55.810200 -14.128741 0.395606 3.312548 2.569450 28.505306 -9.079826 -6.882500 -7.125000 0.000000 0.000000 0.716400 15.366800 -0.501000 7.907369 1.573008 3.547408 37.284908 26.433135 30.357811 -57.359680 59.425793 -26.539113 0.480310 -3.310616 -15.046442 -37.021146 18.907892 -16.411700 7.125000 0.000000 0.000000 -4.646700 -1.895000 -4.505500 
32.881487 7.863109 0.966233 148.742286 74.546659 142.704871 -3.943039 -3.229379 -3.053394 14.562439 68.816918 -80.181973 39.299476 6.802216 156.145970 0.509571 -53.990837 3.699881 0.671900 -5.241900 -14.599700 6.480680 1.841575 -3.167465 -83.641467 -78.402807 -47.079889 -39.193413 -6.225155 154.132402 4.410209 70.802606 -18.768555 -3.354000 11.247200 -33.118100 11.230262 -8.588308 59.837632 1.099381 3.283662 1.903841 -0.859531 4.673622 8.557247 6.734712 -8.021846 -5.464934 1.012153 -10.248420 11.801009 -3.170300 -4.696200 -0.218700 -2.765602 0.671473 5.003599 -65.048295 -23.019002 53.126754 37.913562 -55.922377 -14.257338 0.400958 3.325547 2.501376 28.529794 -9.168015 -6.941800 -7.125000 0.000000 0.000000 0.718500 15.247000 -0.504300 7.925224 1.559430 3.546790 37.454563 26.274869 30.047025 -59.122272 59.781267 -27.685267 0.545038 -3.381724 -16.799361 -35.540782 18.202928 -15.138800 7.125000 0.000000 0.000000 -3.847500 -3.111900 -3.641300 
